<svg width="20" height="20" viewBox="0 0 20 20" fill="none" xmlns="http://www.w3.org/2000/svg">
<path fill-rule="evenodd" clip-rule="evenodd" d="M9.41085 2.74417C9.56712 2.58795 9.77904 2.50018 10 2.50018C10.221 2.50018 10.4329 2.58795 10.5892 2.74417L15.5892 7.74417L17.2558 9.41084C17.4076 9.56801 17.4916 9.77851 17.4897 9.99701C17.4878 10.2155 17.4002 10.4245 17.2457 10.579C17.0912 10.7335 16.8822 10.8212 16.6637 10.8231C16.4452 10.825 16.2347 10.741 16.0775 10.5892L15.8333 10.345V15.8333C15.8333 16.2754 15.6578 16.6993 15.3452 17.0118C15.0326 17.3244 14.6087 17.5 14.1667 17.5H11.6667C11.4457 17.5 11.2337 17.4122 11.0774 17.2559C10.9211 17.0996 10.8333 16.8877 10.8333 16.6667V14.1667H9.16668V16.6667C9.16668 16.8877 9.07888 17.0996 8.9226 17.2559C8.76632 17.4122 8.55436 17.5 8.33335 17.5H5.83335C5.39132 17.5 4.9674 17.3244 4.65484 17.0118C4.34228 16.6993 4.16668 16.2754 4.16668 15.8333V10.345L3.92251 10.5892C3.76534 10.741 3.55484 10.825 3.33635 10.8231C3.11785 10.8212 2.90884 10.7335 2.75433 10.579C2.59982 10.4245 2.51218 10.2155 2.51029 9.99701C2.50839 9.77851 2.59238 9.56801 2.74418 9.41084L4.41085 7.74417L9.41085 2.74417Z" fill="#89643D"/>
</svg>
