<svg width="20" height="20" viewBox="0 0 20 20" fill="none" xmlns="http://www.w3.org/2000/svg">
<path d="M11.6667 8.24998V6.83332C12.125 6.63887 12.5939 6.49304 13.0734 6.39582C13.5528 6.29859 14.0562 6.24998 14.5834 6.24998C14.9445 6.24998 15.2987 6.27776 15.6459 6.33332C15.9931 6.38887 16.3334 6.45832 16.6667 6.54165V7.87498C16.3334 7.74998 15.9964 7.65637 15.6559 7.59415C15.3153 7.53193 14.9578 7.50054 14.5834 7.49998C14.0556 7.49998 13.5487 7.56609 13.0625 7.69832C12.5764 7.83054 12.1112 8.01443 11.6667 8.24998ZM11.6667 12.8333V11.4166C12.125 11.2222 12.5939 11.0764 13.0734 10.9791C13.5528 10.8819 14.0562 10.8333 14.5834 10.8333C14.9445 10.8333 15.2987 10.8611 15.6459 10.9166C15.9931 10.9722 16.3334 11.0416 16.6667 11.125V12.4583C16.3334 12.3333 15.9964 12.2394 15.6559 12.1766C15.3153 12.1139 14.9578 12.0828 14.5834 12.0833C14.0556 12.0833 13.5487 12.1458 13.0625 12.2708C12.5764 12.3958 12.1112 12.5833 11.6667 12.8333ZM11.6667 10.5416V9.12498C12.125 8.93054 12.5939 8.78471 13.0734 8.68748C13.5528 8.59026 14.0562 8.54165 14.5834 8.54165C14.9445 8.54165 15.2987 8.56943 15.6459 8.62498C15.9931 8.68054 16.3334 8.74998 16.6667 8.83332V10.1666C16.3334 10.0416 15.9964 9.94776 15.6559 9.88498C15.3153 9.82221 14.9578 9.79109 14.5834 9.79165C14.0556 9.79165 13.5487 9.85776 13.0625 9.98998C12.5764 10.1222 12.1112 10.3061 11.6667 10.5416ZM10.8334 14.2083C11.4445 13.9166 12.0592 13.6978 12.6775 13.5516C13.2959 13.4055 13.9312 13.3328 14.5834 13.3333C15.0834 13.3333 15.5731 13.375 16.0525 13.4583C16.532 13.5416 17.0145 13.6666 17.5 13.8333V5.58332C17.0417 5.38887 16.5659 5.24304 16.0725 5.14582C15.5792 5.04859 15.0828 4.99998 14.5834 4.99998C13.9306 4.99998 13.2848 5.08332 12.6459 5.24998C12.007 5.41665 11.4028 5.66665 10.8334 5.99998V14.2083ZM10 16.6666C9.33337 16.1389 8.61115 15.7291 7.83337 15.4375C7.0556 15.1458 6.25004 15 5.41671 15C4.83337 15 4.2606 15.0764 3.69837 15.2291C3.13615 15.3819 2.59782 15.5972 2.08337 15.875C1.79171 16.0278 1.5106 16.0208 1.24004 15.8541C0.969485 15.6875 0.83393 15.4444 0.833374 15.125V5.08332C0.833374 4.93054 0.871707 4.7847 0.948374 4.64582C1.02504 4.50693 1.13949 4.40276 1.29171 4.33332C1.94449 4.01387 2.61476 3.7672 3.30254 3.59332C3.99032 3.41943 4.69504 3.33276 5.41671 3.33332C6.22226 3.33332 7.0106 3.43748 7.78171 3.64582C8.55282 3.85415 9.29226 4.16665 10 4.58332C10.7084 4.16665 11.4481 3.85415 12.2192 3.64582C12.9903 3.43748 13.7784 3.33332 14.5834 3.33332C15.3056 3.33332 16.0106 3.42026 16.6984 3.59415C17.3862 3.76804 18.0562 4.01443 18.7084 4.33332C18.8612 4.40276 18.9759 4.50693 19.0525 4.64582C19.1292 4.7847 19.1673 4.93054 19.1667 5.08332V15.125C19.1667 15.4444 19.0314 15.6875 18.7609 15.8541C18.4903 16.0208 18.2089 16.0278 17.9167 15.875C17.4028 15.5972 16.8648 15.3819 16.3025 15.2291C15.7403 15.0764 15.1673 15 14.5834 15C13.75 15 12.9445 15.1458 12.1667 15.4375C11.3889 15.7291 10.6667 16.1389 10 16.6666Z" fill="#89643D"/>
</svg>
