<svg width="18" height="18" viewBox="0 0 18 18" fill="none" xmlns="http://www.w3.org/2000/svg">
<path d="M16.2422 7.875C16.4883 7.875 16.7168 7.91895 16.9277 8.00684C17.1387 8.09473 17.3262 8.21777 17.4902 8.37598C17.6543 8.53418 17.7773 8.71875 17.8594 8.92969C17.9414 9.14062 17.9883 9.36914 18 9.61523C18 9.84375 17.9561 10.0664 17.8682 10.2832C17.7803 10.5 17.6543 10.6904 17.4902 10.8545L11.1885 17.1738L7.875 18L8.70117 14.6865L15.0029 8.37598C15.167 8.21191 15.3574 8.08887 15.5742 8.00684C15.791 7.9248 16.0137 7.88086 16.2422 7.875ZM16.6904 10.0635C16.8135 9.94043 16.875 9.79102 16.875 9.61523C16.875 9.43359 16.8164 9.28711 16.6992 9.17578C16.582 9.06445 16.4297 9.00586 16.2422 9C16.1602 9 16.0811 9.01172 16.0049 9.03516C15.9287 9.05859 15.8613 9.10254 15.8027 9.16699L9.7207 15.2666L9.42188 16.4531L10.6084 16.1543L16.6904 10.0635ZM5.625 7.875H4.5V6.75H5.625V7.875ZM13.5 7.875H6.75V6.75H13.5V7.875ZM4.5 10.125H5.625V11.25H4.5V10.125ZM5.625 4.5H4.5V3.375H5.625V4.5ZM13.5 4.5H6.75V3.375H13.5V4.5ZM3.375 14.625H7.26855L6.9873 15.75H2.25V0H15.75V6.53027C15.3574 6.58887 14.9824 6.71777 14.625 6.91699V1.125H3.375V14.625ZM6.75 10.125H11.2676L10.1426 11.25H6.75V10.125Z" fill="#89643D"/>
</svg>
