<?xml version="1.0" encoding="UTF-8"?>
<!DOCTYPE svg PUBLIC "-//W3C//DTD SVG 1.1//EN" "http://www.w3.org/Graphics/SVG/1.1/DTD/svg11.dtd">
<!-- Creator: CorelDRAW X7.4 EN Portable -->
<svg xmlns="http://www.w3.org/2000/svg" xml:space="preserve" width="7.87402in" height="7.87402in" version="1.1" style="shape-rendering:geometricPrecision; text-rendering:geometricPrecision; image-rendering:optimizeQuality; fill-rule:evenodd; clip-rule:evenodd"
viewBox="0 0 7874 7874"
 xmlns:xlink="http://www.w3.org/1999/xlink">
 <defs>
  <style type="text/css">
   <![CDATA[
    .fil0 {fill:#FEFEFE}
    .fil4 {fill:black}
    .fil6 {fill:#AD1F24}
    .fil1 {fill:#D42027}
    .fil5 {fill:#E85F26}
    .fil7 {fill:#FDEC05}
    .fil8 {fill:white}
    .fil2 {fill:url(#id0)}
    .fil3 {fill:url(#id1)}
   ]]>
  </style>
  <linearGradient id="id0" gradientUnits="userSpaceOnUse" x1="1922.28" y1="3691.86" x2="1268.39" y2="4270.33">
   <stop offset="0" style="stop-opacity:1; stop-color:#DF4626"/>
   <stop offset="0.631373" style="stop-opacity:0; stop-color:#DF4626"/>
   <stop offset="1" style="stop-opacity:0; stop-color:#DF4626"/>
  </linearGradient>
  <linearGradient id="id1" gradientUnits="userSpaceOnUse" x1="6095.4" y1="4374.77" x2="6804.76" y2="3681.84">
   <stop offset="0" style="stop-opacity:1; stop-color:#DF4626"/>
   <stop offset="1" style="stop-opacity:0; stop-color:#DF4626"/>
  </linearGradient>
 </defs>
 <g id="Layer_x0020_1">
  <metadata id="CorelCorpID_0Corel-Layer"/>
  <rect class="fil0" width="7874" height="7874"/>
  <g id="_391148896">
   <path class="fil1" d="M4204 1601c-653,70 -1915,283 -3060,917 0,0 1297,-1153 3466,-1284 1521,-92 2363,516 2722,1118 134,186 217,399 240,638 67,692 -390,1444 -1161,2062 -20,15 -300,225 -752,466l-1410 457c0,0 -653,163 -1308,300 0,0 192,45 607,6 -8,1 -15,2 -22,3 613,-58 1957,-257 3170,-928 0,0 -1296,1153 -3466,1284 -2169,131 -2957,-1162 -2933,-1830l0 0c-39,-755 533,-1575 1446,-2209 633,-319 1741,-807 2700,-870 0,0 1197,-187 2207,337 0,0 -571,-623 -2446,-467z"/>
   <path class="fil2" d="M664 5134c131,-608 420,-1208 1038,-1529 130,-67 607,-279 955,-348l-146 -429c0,0 -550,154 -984,431 -403,257 -785,537 -966,1235 -50,193 -39,485 103,640z"/>
   <path class="fil3" d="M7231 2784c-67,619 -287,1246 -849,1630 -118,81 -555,342 -882,448l182 411c0,0 512,-211 902,-532 362,-299 701,-618 807,-1331 30,-198 -9,-487 -160,-626z"/>
   <g>
    <path class="fil4" d="M5094 4098c54,-150 161,-266 298,-347 81,-49 176,-87 268,-107 268,-59 570,-48 689,246 68,167 64,361 53,538 -32,524 -254,912 -817,956 -18,1 -36,2 -54,2 15,6 31,13 46,20 57,26 90,86 81,149 -9,62 -57,110 -119,120 -34,4 -67,11 -100,19 -86,19 -172,43 -257,70 -243,80 -485,197 -684,360 -33,27 -76,38 -118,29 -27,-6 -54,-9 -81,-13 -72,-10 -145,-16 -218,-19 -210,-9 -429,10 -629,75 -147,48 -288,108 -429,172 -122,56 -245,114 -374,154 -102,31 -206,50 -314,55 -220,9 -434,10 -648,-54 -284,-85 -495,-265 -652,-514 -175,-275 -191,-607 -125,-919 24,-111 57,-220 99,-325 18,-45 37,-89 59,-132 23,-48 51,-94 79,-138 67,-104 144,-203 230,-291 115,-117 247,-217 395,-288 7,-4 15,-8 23,-11 -3,-14 -4,-29 -3,-44l53 -657 -176 18 -44 513c0,1 0,2 0,3 -8,72 -45,152 -90,209 -111,138 -283,178 -453,165 -38,-3 -72,-20 -96,-50 -25,-29 -37,-65 -33,-103l146 -1680c11,-128 99,-236 211,-293 92,-46 223,-62 325,-57 39,2 74,19 99,48 26,29 38,66 35,105l-43 534 178 -16 28 -388c2,-55 23,-115 51,-162 65,-110 175,-175 297,-202 2,-1 3,-1 4,-1 59,-12 122,-20 182,-18 40,0 75,17 102,46 26,30 39,67 36,106l-26 318c24,-28 52,-54 84,-76 1,0 2,-1 3,-2 70,-45 168,-82 251,-87 70,-5 134,43 148,112l61 295 47 -174c1,-4 2,-8 3,-11 17,-47 48,-95 81,-133 74,-86 174,-140 286,-157 2,-1 3,-1 5,-1 60,-7 129,-14 188,-6 43,5 80,28 103,65 23,37 28,80 14,121l-44 128c60,-89 139,-163 243,-208 65,-28 151,-44 222,-45 58,-2 116,5 170,23l9 -109c21,-267 280,-408 525,-410 41,-1 78,15 105,45 28,30 41,68 37,109l-39 441c5,-8 10,-16 15,-23 104,-147 279,-193 451,-190 28,0 54,9 77,24 95,-63 203,-100 322,-99 39,0 76,16 103,46 25,27 38,62 37,98 38,-35 81,-66 127,-93 81,-49 175,-87 268,-107 268,-59 569,-48 689,246 68,167 64,361 53,538 -32,524 -254,912 -818,956 -197,15 -393,-32 -506,-209 -65,-100 -82,-209 -88,-325 -10,-183 5,-360 43,-535 -88,9 -194,46 -202,137l-62 651c-3,72 -37,150 -80,207 -105,141 -278,192 -447,197 -41,1 -80,-14 -108,-44 -4,-4 -7,-8 -10,-13 -19,49 -63,84 -117,90l-351 38c-29,3 -58,-3 -83,-17 -125,83 -270,117 -419,82 -163,-38 -280,-144 -334,-302 -21,-63 -33,-141 -30,-208 -4,-66 -4,-133 -2,-200 3,-94 10,-189 24,-282l-281 812c-11,36 -25,71 -39,106 -32,75 -69,149 -116,216 -12,18 -26,36 -40,53 9,-2 17,-4 25,-6 266,-59 567,-48 687,242 92,-259 270,-421 554,-475 250,-47 546,-36 660,236 4,11 8,21 12,32zm-98 456l-323 29c-40,4 -78,-9 -108,-37 -29,-27 -46,-64 -46,-104 0,-28 0,-55 -1,-83 -1,-6 -2,-19 -4,-28 -6,1 -16,6 -20,10 -19,14 -29,39 -34,62 -13,56 -22,114 -30,171 -16,108 -26,216 -35,324 -2,19 0,71 9,98 4,-2 8,-4 12,-6 44,-35 65,-158 73,-210 10,-64 61,-113 125,-120l335 -34c14,-2 28,-1 41,1 2,-24 4,-49 6,-73zm29 510c-36,84 -80,156 -135,216 104,-1 207,4 306,18 -45,-31 -85,-71 -118,-123 -23,-36 -41,-73 -53,-111zm-1183 203c-36,100 -86,189 -150,265 96,-35 196,-68 298,-99 -48,-31 -91,-73 -126,-128 -8,-13 -15,-26 -22,-38zm-1289 -526l-368 101c-48,13 -98,1 -134,-33 -37,-34 -52,-83 -42,-132 10,-50 15,-106 15,-157 -1,-11 -2,-32 -4,-49 -18,7 -41,22 -50,28 -22,17 -50,42 -64,66 -103,165 -145,416 -148,609 -3,232 52,591 297,694 157,66 354,60 521,37 143,-20 284,-56 422,-100 -159,-8 -307,-66 -399,-211 -65,-100 -82,-208 -88,-325 -10,-181 4,-355 42,-528zm-59 -902c4,-8 9,-16 15,-24 24,-31 58,-49 97,-53 24,-3 73,-10 87,-33 23,-41 4,-146 -5,-190l-154 -701 -64 792c-1,2 -1,4 -1,7 -8,58 -36,121 -71,172 32,7 65,17 96,30zm1765 -523c17,-9 40,-47 45,-57 55,-113 69,-448 64,-578 0,-3 -1,-15 -3,-18 -19,-1 -35,13 -42,30 -15,40 -24,84 -33,125 -12,60 -22,121 -29,181 -11,86 -20,182 -12,268 1,10 5,35 10,49zm2202 -235c23,-8 50,-35 61,-51 37,-49 57,-231 62,-294 9,-101 14,-213 9,-314 -1,-12 -6,-39 -15,-51 -7,3 -17,9 -21,12 -25,19 -37,51 -43,80 -13,60 -23,121 -32,182 -9,65 -18,131 -25,197 -5,46 -9,92 -12,138 -1,20 4,75 16,101zm-3299 2188c23,-8 50,-35 61,-50 37,-50 57,-232 62,-295 9,-101 15,-213 9,-314 -1,-12 -6,-39 -15,-51 -7,3 -17,9 -21,12 -25,19 -37,51 -43,80 -13,60 -23,121 -32,182 -9,65 -17,131 -25,197 -5,46 -9,92 -12,138 -1,20 4,75 16,101zm2479 -419c23,-8 50,-35 62,-51 36,-49 56,-231 61,-294 9,-101 15,-213 9,-314 -1,-12 -6,-39 -15,-51 -7,3 -17,9 -21,12 -24,19 -37,51 -43,80 -13,60 -23,121 -31,182 -10,65 -18,131 -25,197 -5,46 -10,92 -13,138 -1,20 4,75 16,101z"/>
    <path class="fil5" d="M5044 3933c55,-150 162,-266 298,-347 82,-49 176,-87 269,-107 267,-60 569,-48 689,246 68,167 63,361 52,538 -32,524 -253,911 -817,955 -18,2 -36,3 -54,3 16,6 31,13 46,20 58,26 91,86 82,148 -9,63 -57,111 -120,120 -33,5 -66,12 -99,19 -87,20 -173,43 -257,71 -244,80 -486,197 -684,360 -34,27 -77,38 -119,29 -27,-6 -54,-10 -81,-13 -72,-10 -145,-17 -217,-20 -210,-8 -430,11 -630,76 -147,47 -288,108 -428,172 -123,56 -245,113 -375,153 -102,32 -206,51 -313,55 -221,10 -435,11 -649,-53 -284,-85 -495,-266 -652,-514 -174,-276 -190,-607 -124,-920 23,-110 57,-219 99,-324 18,-45 37,-90 59,-132 23,-48 50,-94 79,-138 66,-105 143,-203 230,-291 114,-117 246,-217 394,-288 8,-4 16,-8 23,-11 -3,-14 -4,-29 -3,-44l53 -658 -175 19 -45 513c0,1 0,2 0,2 -7,73 -44,153 -90,210 -111,138 -282,178 -452,165 -38,-3 -72,-21 -97,-50 -25,-29 -36,-65 -33,-103l146 -1680c11,-128 99,-236 211,-293 92,-46 223,-62 326,-57 38,2 73,19 99,48 25,29 37,66 34,105l-43 534 178 -16 28 -389c2,-54 24,-115 51,-161 65,-111 175,-175 298,-203 1,0 2,0 4,-1 58,-11 122,-19 181,-18 40,1 76,18 102,47 26,29 39,67 36,106l-26 318c24,-29 52,-54 85,-76 0,-1 1,-1 2,-2 70,-45 168,-82 251,-88 71,-4 134,44 148,113l61 295 47 -175c1,-3 2,-7 3,-10 17,-47 49,-96 81,-133 75,-86 174,-140 286,-158 2,0 4,0 5,0 60,-8 129,-14 189,-7 43,6 80,29 102,66 23,37 28,80 14,121l-44 128c61,-89 140,-163 243,-208 65,-28 151,-44 222,-46 58,-1 116,6 170,23l9 -108c21,-268 280,-408 525,-411 41,0 78,16 106,46 27,30 40,68 37,108l-40 442c5,-8 10,-16 15,-23 104,-147 280,-193 451,-190 28,0 55,9 77,24 95,-64 204,-100 322,-99 40,0 76,16 103,45 25,28 38,62 37,99 39,-35 81,-66 127,-93 82,-49 176,-87 268,-107 268,-60 570,-48 689,246 69,167 64,361 53,538 -32,524 -254,912 -817,955 -198,16 -394,-32 -507,-208 -64,-100 -82,-209 -88,-326 -10,-182 5,-359 44,-534 -88,9 -194,46 -203,136l-61 651c-4,72 -37,151 -80,208 -106,141 -279,191 -448,197 -41,1 -79,-15 -107,-44 -4,-4 -8,-9 -11,-13 -19,49 -63,84 -117,90l-351 37c-29,3 -58,-2 -83,-16 -124,83 -270,117 -419,82 -162,-38 -280,-145 -333,-302 -22,-63 -34,-141 -30,-208 -5,-67 -4,-134 -3,-200 3,-94 10,-189 24,-282l-281 812c-11,36 -25,71 -39,105 -31,76 -69,149 -115,217 -13,18 -26,36 -40,53 8,-2 16,-4 24,-6 267,-59 567,-48 688,242 91,-260 270,-421 554,-475 249,-48 545,-36 659,236 5,10 9,21 12,32zm-98 456l-322 29c-40,3 -79,-10 -108,-37 -30,-27 -46,-64 -46,-104 0,-28 -1,-56 -2,-83 0,-6 -1,-19 -3,-29 -7,2 -16,7 -21,10 -19,15 -29,40 -34,62 -13,57 -22,114 -30,172 -15,107 -26,215 -35,324 -1,19 0,70 9,97 4,-1 8,-3 12,-6 44,-34 65,-157 73,-209 10,-65 61,-113 126,-120l335 -35c14,-1 27,0 41,2 1,-24 3,-49 5,-73zm29 509c-35,85 -80,157 -135,217 105,-1 207,4 306,18 -45,-31 -85,-71 -118,-123 -23,-36 -40,-73 -53,-112zm-1182 203c-37,101 -86,190 -151,266 96,-35 196,-69 298,-99 -48,-31 -91,-73 -125,-128 -8,-13 -16,-26 -22,-39zm-1290 -525l-368 101c-48,13 -98,0 -134,-33 -36,-34 -52,-83 -42,-132 10,-50 16,-106 15,-157 0,-11 -1,-32 -4,-49 -18,7 -41,21 -50,28 -22,16 -50,42 -64,66 -102,165 -145,416 -147,608 -3,233 51,592 296,695 157,66 355,60 521,37 143,-21 284,-56 422,-101 -159,-8 -307,-66 -399,-210 -64,-100 -82,-209 -88,-326 -10,-180 5,-355 42,-527zm-59 -902c4,-9 9,-17 15,-24 25,-31 59,-50 97,-53 25,-3 73,-10 87,-34 24,-40 4,-145 -5,-190l-154 -700 -64 792c0,2 0,4 -1,6 -7,59 -35,122 -71,173 33,7 65,17 96,30zm1765 -523c18,-10 40,-47 45,-57 55,-113 69,-449 64,-578 0,-4 -1,-15 -3,-18 -19,-1 -35,13 -41,30 -15,40 -25,83 -33,125 -13,60 -22,120 -30,181 -10,86 -19,181 -11,268 1,10 4,35 9,49zm2202 -235c23,-9 50,-35 62,-51 36,-50 56,-231 62,-294 8,-101 14,-213 8,-315 -1,-11 -6,-38 -15,-50 -7,3 -16,8 -21,12 -24,19 -36,51 -43,80 -12,60 -22,121 -31,181 -10,66 -18,132 -25,197 -5,46 -10,92 -13,139 -1,20 4,75 16,101zm-3299 2188c23,-8 50,-35 62,-51 36,-49 56,-231 62,-294 8,-101 14,-213 8,-315 -1,-11 -6,-38 -14,-50 -8,3 -17,8 -22,12 -24,19 -36,51 -43,80 -12,60 -22,121 -31,181 -10,66 -18,132 -25,197 -5,46 -10,93 -13,139 -1,20 4,75 16,101zm2479 -419c24,-9 50,-35 62,-51 37,-50 56,-231 62,-294 9,-101 14,-213 8,-315 0,-11 -6,-38 -14,-50 -8,3 -17,8 -22,12 -24,19 -36,51 -42,80 -13,60 -23,120 -32,181 -10,66 -18,131 -25,197 -5,46 -10,92 -13,139 -1,20 4,75 16,101z"/>
    <path class="fil6" d="M2085 3732c65,-9 133,-12 201,-8 0,0 1,0 1,0 56,4 123,27 171,55 115,66 170,176 165,308 -4,110 -9,219 -13,329 -1,23 -16,43 -39,49l-459 126c-19,5 -37,1 -51,-12 -13,-13 -19,-31 -15,-49 11,-55 17,-121 16,-176 0,-31 -5,-112 -35,-130 -7,-4 -14,-6 -21,-8 -78,-17 -188,76 -225,137 -111,180 -158,446 -161,654 -3,273 66,658 351,777 173,73 384,69 567,43 159,-22 318,-64 470,-114 106,-36 211,-76 313,-121 597,-266 1542,-557 2170,-271 21,10 34,32 30,56 -3,24 -21,41 -45,45 -35,5 -71,13 -105,20 -90,20 -179,44 -266,73 -253,83 -505,206 -712,375 -13,11 -29,15 -45,11 -28,-6 -58,-10 -87,-14 -75,-10 -150,-17 -226,-20 -220,-9 -450,11 -660,80 -151,49 -294,109 -438,175 -119,55 -238,111 -364,150 -95,29 -191,47 -291,51 -210,9 -416,12 -619,-50 -264,-78 -457,-246 -603,-476 -162,-257 -174,-565 -113,-854 23,-106 55,-210 95,-311 16,-41 35,-85 56,-125 21,-44 48,-89 74,-130 63,-99 137,-193 219,-276 107,-110 231,-204 369,-271 64,-30 128,-54 195,-72 -24,2 -49,3 -73,3 -15,-1 -28,-6 -38,-18 -10,-11 -15,-25 -14,-40l62 -764 -354 37 -51 587c0,0 0,0 0,0 -6,56 -36,120 -71,163 -92,115 -236,143 -376,133 -15,-2 -27,-8 -37,-19 -9,-11 -13,-24 -12,-39l146 -1679c8,-97 79,-179 163,-222 77,-39 195,-52 281,-48 15,1 27,7 37,18 10,11 14,25 13,39l-52 639 358 -32 33 -465c2,-40 19,-88 39,-121 53,-89 143,-139 241,-162 1,0 1,0 2,0 50,-10 111,-18 162,-16 15,0 28,6 38,17 11,11 15,25 14,40l-134 1649c0,1 0,1 0,2 -7,54 -40,116 -74,157 -47,56 -107,93 -173,115zm1132 -231c-10,33 -23,67 -37,99 -28,70 -63,139 -106,200 -58,84 -138,166 -242,184 -106,19 -202,-14 -262,-105 -25,-37 -46,-90 -52,-135 -2,-14 2,-28 11,-40 9,-11 21,-18 36,-20 58,-5 123,-22 154,-76 40,-68 20,-181 5,-253l-197 -902c-1,-1 -1,-1 -1,-1 -7,-36 -5,-82 2,-117 16,-85 63,-155 134,-204 1,0 1,0 1,-1 58,-37 141,-69 209,-74 27,-1 51,17 56,43l136 660 143 -535c1,-1 1,-2 2,-4 13,-36 39,-76 64,-105 61,-70 141,-113 233,-127 1,0 1,-1 2,-1 49,-6 118,-12 167,-6 16,2 30,11 39,25 8,14 10,29 5,45l-502 1450zm1141 2c-12,11 -24,21 -36,31 -111,84 -240,121 -378,89 -133,-31 -226,-116 -270,-245 -17,-52 -29,-123 -25,-179 -4,-65 -4,-133 -2,-198 4,-141 19,-286 52,-424 47,-195 141,-411 337,-496 54,-23 132,-37 189,-38 93,-3 177,20 246,71l19 -238c18,-220 240,-327 438,-329 16,0 29,5 40,17 10,11 15,25 14,40l-167 1866c-3,26 -22,45 -47,48l-351 37c-16,2 -30,-3 -42,-13 -11,-11 -17,-24 -17,-39zm1093 -341c-2,55 -30,118 -62,161 -89,118 -239,157 -380,162 -16,0 -29,-6 -40,-17 -11,-12 -16,-26 -14,-41l105 -1181c1,-55 26,-120 58,-164 85,-122 236,-155 376,-153 16,0 29,6 39,17 10,12 15,25 13,40l-1 15c1,-1 2,-2 3,-3 96,-90 213,-145 346,-144 16,0 29,6 39,17 10,12 15,25 14,40l-25 331c-2,28 -27,50 -55,49 -143,-7 -338,51 -354,218l-62 653zm998 -1366c222,-49 487,-56 589,193 62,152 56,338 46,500 -29,478 -217,832 -736,872 -164,13 -331,-20 -426,-168 -55,-86 -69,-182 -74,-282 -13,-242 18,-469 93,-699 45,-140 142,-245 266,-319 73,-44 160,-79 242,-97zm-3298 2188c221,-49 486,-55 588,194 62,152 56,338 46,499 -29,478 -217,832 -736,872 -164,13 -331,-20 -426,-167 -55,-87 -69,-183 -74,-283 -12,-241 19,-468 93,-699 45,-139 142,-245 266,-319 73,-44 160,-79 243,-97zm1238 -232c204,-39 466,-45 562,183 40,96 44,209 44,312 0,28 -21,51 -48,53l-331 30c-16,1 -29,-4 -41,-14 -11,-10 -17,-24 -17,-39 0,-29 0,-58 -2,-87 -3,-65 -23,-118 -96,-113 -23,1 -50,14 -68,27 -37,28 -58,69 -68,114 -13,59 -23,119 -32,179 -15,109 -26,218 -35,328 -4,52 2,196 80,196 30,0 58,-8 83,-27 69,-53 94,-183 107,-266 3,-25 22,-43 47,-45l335 -35c17,-1 33,4 44,17 12,13 17,29 13,46 -76,404 -250,610 -673,644 -157,12 -315,-21 -404,-162 -52,-84 -65,-176 -70,-272 -10,-204 9,-394 64,-592 75,-266 232,-425 506,-477zm1241 -187c221,-49 486,-56 588,193 62,152 56,338 46,500 -29,478 -217,832 -736,872 -164,13 -331,-20 -426,-168 -55,-86 -68,-182 -74,-282 -12,-242 19,-469 93,-699 45,-140 142,-245 267,-320 72,-43 159,-78 242,-96zm-1435 -324c64,5 114,-57 139,-109 62,-128 78,-474 73,-620 -2,-28 -9,-57 -30,-77 -12,-12 -30,-22 -47,-24 -61,-9 -118,29 -139,86 -16,43 -28,93 -37,138 -13,62 -23,125 -31,188 -10,91 -20,196 -11,287 5,51 20,127 83,131zm2332 -1124c-25,2 -55,16 -74,31 -42,32 -64,81 -75,131 -13,62 -24,125 -33,188 -10,66 -18,133 -25,200 -5,47 -10,95 -13,142 -4,55 14,198 91,198 57,0 113,-46 146,-89 81,-110 95,-523 87,-667 -3,-57 -34,-139 -104,-134zm-3299 2188c-25,2 -54,16 -74,31 -42,32 -64,81 -75,131 -13,62 -24,125 -33,188 -9,66 -18,133 -25,200 -5,47 -10,95 -13,142 -3,56 14,198 91,198 57,0 114,-45 146,-89 81,-110 95,-523 87,-667 -3,-57 -34,-139 -104,-134zm2479 -419c-25,1 -54,16 -74,31 -42,32 -64,81 -75,131 -13,62 -23,125 -33,187 -9,67 -18,134 -25,201 -5,47 -10,95 -13,142 -3,55 14,198 91,198 57,0 114,-46 146,-89 81,-110 96,-523 87,-667 -3,-57 -34,-139 -104,-134z"/>
    <path class="fil7" d="M1044 3806l146 -1680c7,-78 66,-144 134,-179 98,-50 254,-42 254,-42l-57 701 466 -41 36 -511c0,0 5,-181 239,-234 0,0 87,-17 151,-15l-134 1649c0,0 -33,258 -396,254l67 -828 -461 48 -55 630c0,0 -28,276 -390,248zm1526 -69c249,-25 244,-208 206,-393l-198 -903c0,0 -32,-166 114,-266 0,0 92,-59 184,-66l182 880 201 -751c0,0 59,-167 255,-198 0,0 103,-12 155,-6l-502 1451c0,0 -125,408 -345,447 -219,39 -252,-195 -252,-195zm1844 -376c0,0 -179,276 -458,210 -279,-65 -254,-372 -254,-372 0,0 -62,-889 356,-1069 0,0 296,-125 457,104l28 -354c15,-190 215,-279 386,-280l-167 1865 -351 38 3 -142zm-222 -67c-35,-2 -118,-20 -133,-179 -16,-176 33,-506 82,-637 30,-79 110,-132 196,-120 47,6 118,47 123,152 4,117 -7,497 -78,645 -35,72 -102,145 -190,139zm1702 -1387l-25 331c-173,-8 -390,68 -409,266l-61 655c0,0 -8,260 -392,273l106 -1183c0,0 0,-273 381,-267l-14 187c0,0 140,-263 414,-262zm567 -59c-69,15 -378,98 -470,380 -102,318 -96,561 -90,680 6,118 22,433 443,400 494,-38 660,-375 687,-822 9,-151 16,-334 -42,-477 -91,-221 -335,-204 -528,-161zm62 216c-46,3 -162,41 -197,204 -38,180 -66,443 -72,538 -6,92 28,254 144,254 87,0 158,-69 188,-111 94,-127 106,-559 98,-701 -5,-89 -58,-191 -161,-184zm-3361 1972c-69,15 -378,99 -469,380 -103,318 -97,562 -91,680 6,118 22,433 443,401 494,-39 660,-376 687,-823 9,-151 16,-333 -42,-476 -90,-221 -335,-205 -528,-162zm62 216c-46,3 -162,41 -197,204 -38,181 -66,444 -72,538 -6,92 28,254 144,254 87,0 158,-69 189,-111 94,-127 105,-559 97,-701 -5,-89 -58,-191 -161,-184zm1175 -448c-255,49 -396,194 -465,439 -74,267 -67,472 -62,575 6,114 21,415 417,384 394,-31 552,-215 625,-601l-335 34c-23,152 -70,339 -242,339 -110,0 -142,-142 -133,-253 8,-90 29,-343 68,-515 33,-145 141,-179 184,-182 97,-7 148,58 153,163 1,23 2,54 2,90l331 -30c0,-100 -4,-205 -40,-292 -85,-202 -333,-184 -503,-151zm-1842 610l-459 126c0,0 61,-299 -44,-361 -106,-63 -262,55 -318,146 -239,387 -271,1304 214,1508 460,193 1190,-103 1392,-193 588,-261 1519,-548 2127,-271 0,0 -639,94 -1110,480 0,0 -521,-109 -1001,47 -480,156 -706,359 -1078,374 -373,16 -842,25 -1175,-502 -334,-526 40,-1237 40,-1237 0,0 374,-792 1138,-754 0,0 298,24 287,308 -11,284 -13,329 -13,329zm3084 -797c-69,15 -378,98 -469,380 -103,318 -97,561 -91,680 7,118 22,433 443,400 494,-38 660,-375 687,-823 9,-150 16,-333 -42,-476 -90,-221 -334,-204 -528,-161zm62 216c-46,3 -162,41 -197,204 -38,180 -66,443 -72,538 -6,92 28,254 144,254 87,0 158,-69 189,-111 94,-127 105,-559 97,-701 -5,-89 -58,-191 -161,-184z"/>
    <path class="fil8" d="M1981 2862c3,6 5,13 4,21l-60 751 47 -13 59 -728c-14,-14 -31,-27 -50,-31zm1433 1501c8,24 12,49 14,73 2,50 2,102 1,153 -2,68 -5,137 -12,205 -10,102 -32,282 -94,366 -8,11 -17,21 -26,31l0 0 -1 1c-33,35 -75,65 -120,81 -47,20 -105,34 -172,29 28,18 62,29 102,29 101,0 195,-65 254,-144 68,-93 92,-274 103,-389 6,-69 10,-139 12,-208 1,-52 1,-105 -2,-157 -4,-84 -42,-174 -113,-224 -5,-4 -10,-7 -16,-10 24,44 56,108 70,164l0 0zm-309 -271c-50,17 -100,40 -144,66 -106,63 -189,152 -228,271 -43,132 -72,268 -84,407 -8,87 -9,172 -5,260 5,83 15,167 61,239 41,64 100,99 167,116 -66,-26 -110,-95 -136,-153 -35,-62 -42,-135 -46,-205 -4,-84 -3,-169 4,-253 13,-135 41,-268 83,-397 35,-108 111,-188 207,-245 61,-37 133,-66 203,-81 97,-22 234,-42 330,1l0 0c-162,-81 -411,-26 -412,-26zm2786 -137c8,24 12,49 14,73 2,51 2,102 1,153 -2,68 -5,137 -12,205 -10,103 -32,282 -94,366 -8,11 -17,21 -26,31l0 0 -1 2c-33,35 -75,64 -120,80 -47,20 -105,34 -172,29 28,18 62,29 102,29 101,0 196,-64 254,-144 69,-93 92,-274 103,-388 7,-70 10,-139 12,-209 1,-52 1,-104 -2,-156 -4,-85 -42,-175 -113,-225 -5,-3 -10,-7 -16,-10 24,44 56,109 70,164l0 0zm-309 -271c-50,17 -100,40 -144,66 -106,63 -189,152 -228,271 -42,132 -72,269 -84,407 -8,87 -9,173 -4,260 4,83 14,168 60,240 41,64 101,99 167,116 -66,-27 -109,-96 -136,-154 -35,-62 -42,-135 -46,-204 -4,-85 -3,-169 4,-254 13,-135 41,-268 83,-397 35,-108 111,-188 207,-245 61,-37 133,-66 203,-81 98,-22 234,-42 330,1l0 0c-162,-81 -411,-26 -412,-26zm-4450 41l139 -1592c4,-49 48,-92 90,-113 29,-15 70,-24 109,-29l6 -47c-49,5 -100,16 -136,35 -57,29 -109,84 -115,150l-139 1593 46 3zm1191 -1879c-18,2 -37,5 -53,9 -73,16 -143,51 -183,117 -13,22 -27,57 -28,83 0,0 0,1 0,2l-37 511c-1,17 -15,31 -32,32l-465 42c-10,1 -19,-2 -26,-9 -2,21 1,39 5,53 8,2 16,2 25,1l465 -41c40,-3 71,-35 74,-75l36 -511c1,-1 1,-2 1,-3 0,-18 12,-46 21,-61 33,-55 93,-83 153,-96 12,-3 25,-5 38,-7l6 -47zm1196 229c-71,11 -132,44 -179,98 -17,20 -38,51 -48,76l-200 749c-2,5 -4,10 -7,14 -9,14 -27,36 -62,51 10,4 21,7 32,7 38,2 71,-23 81,-60l200 -747c8,-20 25,-44 39,-60 39,-46 91,-73 151,-82 3,-1 5,-1 8,-1l14 -48c-10,1 -19,2 -29,3zm-717 87c-33,11 -65,26 -90,42 -52,35 -85,84 -97,146 -5,24 -7,59 -2,84l198 902c0,0 0,0 0,1 20,98 38,223 -15,315 -40,69 -108,101 -182,115 7,23 18,47 30,64 14,21 30,37 48,48l-15 -81c66,-22 122,-60 159,-123 59,-103 43,-236 20,-348 0,0 0,0 0,0 0,0 0,-1 0,-1l-198 -901c-4,-19 -1,-48 2,-67 10,-49 36,-87 77,-116 20,-12 43,-23 67,-32l-2 -48zm2004 -510c-114,31 -218,105 -228,231l-26 316c-6,55 -37,82 -85,87 62,31 125,-5 131,-83l26 -316c8,-100 90,-159 180,-186l2 -49zm-311 1753c1,-51 -3,-85 -57,-104 8,33 11,76 11,112l46 -8zm-40 -214c23,-48 36,-101 47,-153 12,-59 19,-119 25,-179 7,-68 11,-136 13,-204 2,-49 3,-99 1,-148 -18,-78 -47,-157 -148,-188 63,62 98,100 102,190 2,48 1,96 -1,144 -2,68 -6,135 -12,202 -6,58 -14,117 -25,174 -10,47 -23,98 -44,142 -12,24 -26,48 -44,69 -70,88 -174,105 -280,103 160,73 301,-19 366,-152zm-674 -186c4,-133 17,-267 48,-396 32,-131 90,-288 202,-371 18,-13 38,-25 59,-34 40,-17 97,-26 141,-27 57,-1 108,11 151,39 -83,-78 -206,-98 -310,-54 -25,11 -47,24 -69,40 -121,89 -184,254 -218,396 -32,131 -46,271 -50,406 -1,53 -2,108 1,162 6,132 11,258 139,336 -110,-133 -98,-352 -94,-497zm2022 -1052c-73,18 -138,56 -194,110 -35,32 -76,80 -98,123 -8,15 -25,22 -41,17l-38 32c8,5 16,10 25,12 37,11 76,-6 94,-40 21,-38 57,-81 89,-111 46,-43 98,-76 157,-94l6 -49zm-706 1387l97 -1084c0,-2 1,-5 1,-7 0,-29 17,-68 33,-91 38,-53 101,-78 165,-88l6 -47c-81,10 -159,40 -208,108 -22,30 -42,79 -42,118 0,1 0,2 -1,3l-97 1085c22,3 46,6 46,3l0 0zm1300 -1438c-51,17 -100,40 -144,66 -106,64 -189,152 -228,271 -43,132 -72,269 -84,407 -8,87 -9,173 -5,260 5,83 14,168 61,240 41,64 100,99 167,116 -66,-27 -110,-95 -136,-154 -35,-61 -42,-135 -46,-204 -4,-85 -3,-169 4,-254 13,-135 41,-268 83,-397 35,-108 111,-188 207,-245 61,-36 133,-66 203,-81 97,-22 234,-42 330,1l0 0c-162,-81 -411,-26 -412,-26zm309 271c8,24 12,49 13,73 3,51 3,102 2,153 -2,68 -5,137 -12,205 -10,103 -32,282 -94,366 -8,11 -17,21 -26,31l0 0 -1 2c-33,35 -75,64 -120,80 -47,20 -105,35 -172,29 28,19 62,29 102,29 101,0 195,-64 254,-144 68,-93 92,-274 103,-388 6,-70 10,-139 12,-209 1,-52 1,-104 -2,-156 -4,-85 -42,-175 -113,-225 -5,-3 -11,-7 -16,-10 24,44 56,109 70,164l0 0zm-1894 2474l-202 21c-18,103 -50,220 -125,287l0 0c0,0 -2,2 -6,5 -13,11 -27,21 -43,28 -43,22 -112,46 -204,36l2 1c30,20 66,30 103,30 201,0 278,-176 312,-345l161 -17 2 -46zm-852 241c-1,-5 -2,-9 -2,-13 -2,-20 -4,-41 -5,-61 -3,-72 -4,-144 1,-216 8,-113 28,-224 59,-333 60,-216 178,-339 401,-381 102,-20 252,-38 344,21 0,0 -102,-80 -278,-78 -26,3 -51,7 -74,12 -241,45 -372,181 -437,414 -32,112 -52,226 -60,342 -6,74 -5,147 -2,222 10,135 60,237 130,289 -52,-76 -68,-149 -77,-218zm685 -702c0,4 0,8 0,12l46 -10c0,-1 -1,-3 -1,-4 -3,-84 -33,-145 -108,-190 44,57 61,132 63,192zm697 1172c-598,-195 -1450,77 -1985,315 -105,46 -212,87 -321,123 -112,38 -228,70 -345,94l0 0c0,0 -173,50 -420,42 -11,-1 -22,-1 -33,-2 -131,-7 -279,-30 -432,-86 35,26 73,47 113,64 197,83 429,82 638,52 168,-24 333,-67 494,-120 110,-37 218,-78 324,-125 290,-129 599,-237 909,-306 179,-40 363,-67 546,-71 108,-3 217,3 324,21l-2 1c63,-4 127,-5 190,-2zm-3195 -1060c2,19 3,37 4,54 0,27 -1,55 -3,84l46 -7c2,-26 3,-52 3,-78 -2,-87 -20,-193 -101,-242 -8,-5 -16,-9 -25,-12 35,49 72,119 76,201l0 0zm227 -462c-31,-12 -65,-22 -93,-24 -169,-8 -330,25 -482,98 -130,62 -245,150 -345,252 -78,80 -148,169 -207,263 -25,38 -50,80 -70,121 0,0 0,1 0,1 -20,38 -38,79 -53,118 -38,96 -69,195 -90,296 -57,267 -49,552 101,788 100,160 225,286 383,370 -134,-115 -283,-263 -345,-394 -142,-225 -148,-501 -94,-754 20,-99 50,-195 88,-289 15,-38 31,-77 50,-113 1,-1 1,-2 2,-3 19,-41 42,-79 66,-117 58,-91 126,-177 202,-254 96,-99 207,-184 332,-244 134,-65 265,-109 555,-115z"/>
   </g>
  </g>
 </g>
</svg>
